<?xml version="1.0" standalone="no"?>
<!DOCTYPE svg PUBLIC "-//W3C//DTD SVG 20010904//EN"
 "http://www.w3.org/TR/2001/REC-SVG-20010904/DTD/svg10.dtd">
<svg version="1.0" xmlns="http://www.w3.org/2000/svg"
 width="416.000000pt" height="416.000000pt" viewBox="0 0 416.000000 416.000000"
 preserveAspectRatio="xMidYMid meet">
<metadata>
Created by potrace 1.14, written by Peter Selinger 2001-2017
</metadata>
<g transform="translate(0.000000,416.000000) scale(0.100000,-0.100000)"
fill="#000000" stroke="none">
<path d="M1855 4008 c-345 -39 -729 -200 -995 -418 -456 -373 -720 -926 -720
-1510 0 -573 253 -1117 693 -1486 332 -279 735 -434 1172 -451 246 -9 491 25
704 98 112 39 347 155 438 216 241 162 455 385 596 619 508 846 298 1949 -486
2546 -397 302 -905 442 -1402 386z m745 -1089 c87 -24 135 -47 218 -106 122
-86 230 -255 255 -396 l11 -65 45 -6 c111 -15 235 -108 283 -213 18 -40 22
-67 23 -153 0 -97 -2 -110 -32 -172 -51 -108 -130 -173 -248 -204 -40 -11
-259 -14 -1120 -14 -670 0 -1086 4 -1113 10 -200 46 -329 230 -301 428 34 236
365 497 708 557 136 24 243 19 436 -20 28 -5 32 -2 65 55 19 35 67 92 110 133
181 173 420 233 660 166z"/>
</g>
</svg>
